<?xml version="1.0" encoding="UTF-8" standalone="no"?><!-- Generator: Gravit.io --><svg xmlns="http://www.w3.org/2000/svg" xmlns:xlink="http://www.w3.org/1999/xlink" style="isolation:isolate" viewBox="0 0 32 32" width="32pt" height="32pt"><defs></defs><path d=" M 10 2 L 22 2 C 22.27 2 22.52 2.11 22.71 2.29 C 22.89 2.48 23 2.73 23 3 L 23 8 L 9 8 L 9 3 C 9 2.73 9.11 2.48 9.29 2.29 C 9.48 2.11 9.73 2 10 2 L 10 2 L 10 2 Z  M 12.5 19 L 19.5 19 C 19.77 19 20.02 19.11 20.21 19.29 C 20.39 19.48 20.5 19.73 20.5 20 C 20.5 20.27 20.39 20.52 20.21 20.71 C 20.02 20.89 19.77 21 19.5 21 L 12.5 21 C 12.23 21 11.98 20.89 11.79 20.71 C 11.61 20.52 11.5 20.27 11.5 20 C 11.5 19.73 11.61 19.48 11.79 19.29 C 11.98 19.11 12.23 19 12.5 19 L 12.5 19 Z  M 2.68 10 L 29.32 10 C 29.5 10 29.67 10.07 29.8 10.2 C 29.93 10.33 30 10.5 30 10.68 L 30 29.32 C 30 29.5 29.93 29.67 29.8 29.8 C 29.67 29.93 29.5 30 29.32 30 L 2.68 30 C 2.5 30 2.33 29.93 2.2 29.8 C 2.07 29.67 2 29.5 2 29.32 L 2 10.68 C 2 10.5 2.07 10.33 2.2 10.2 C 2.33 10.07 2.5 10 2.68 10 L 2.68 10 L 2.68 10 L 2.68 10 L 2.68 10 Z  M 7 8 L 2.68 8 L 2.68 8 C 1.97 8 1.29 8.28 0.78 8.78 C 0.28 9.29 0 9.97 0 10.68 L 0 29.32 C 0 30.03 0.28 30.71 0.78 31.22 C 1.29 31.72 1.97 32 2.68 32 L 29.32 32 C 30.03 32 30.71 31.72 31.22 31.22 C 31.72 30.71 32 30.03 32 29.32 L 32 10.68 C 32 9.97 31.72 9.29 31.22 8.78 C 30.71 8.28 30.03 8 29.32 8 L 25 8 L 25 3 C 25 2.2 24.68 1.44 24.12 0.88 C 23.56 0.32 22.8 0 22 0 L 10 0 C 9.2 0 8.44 0.32 7.88 0.88 C 7.32 1.44 7 2.2 7 3 L 7 8 L 7 8 L 7 8 L 7 8 Z "/></svg>