<?xml version="1.0" encoding="UTF-8" standalone="no"?><!-- Generator: Gravit.io --><svg xmlns="http://www.w3.org/2000/svg" xmlns:xlink="http://www.w3.org/1999/xlink" style="isolation:isolate" viewBox="0 0 32 32" width="32pt" height="32pt"><defs></defs><path d=" M 3.126 3.126 C 2.959 3.303 2.857 3.535 2.857 3.786 L 2.857 11.214 C 2.857 11.465 2.959 11.697 3.126 11.874 C 3.303 12.041 3.535 12.143 3.786 12.143 L 11.214 12.143 C 11.465 12.143 11.697 12.041 11.874 11.874 C 12.041 11.697 12.143 11.465 12.143 11.214 L 12.143 3.786 C 12.143 3.535 12.041 3.303 11.874 3.126 C 11.697 2.959 11.465 2.857 11.214 2.857 L 3.786 2.857 C 3.535 2.857 3.303 2.959 3.126 3.126 L 3.126 3.126 L 3.126 3.126 L 3.126 3.126 L 3.126 3.126 L 3.126 3.126 L 3.126 3.126 Z  M 3.126 20.126 C 2.959 20.303 2.857 20.535 2.857 20.786 L 2.857 28.214 C 2.857 28.465 2.959 28.697 3.126 28.874 C 3.303 29.041 3.535 29.143 3.786 29.143 L 11.214 29.143 C 11.465 29.143 11.697 29.041 11.874 28.874 C 12.041 28.697 12.143 28.465 12.143 28.214 L 12.143 20.786 C 12.143 20.535 12.041 20.303 11.874 20.126 C 11.697 19.959 11.465 19.857 11.214 19.857 L 3.786 19.857 C 3.535 19.857 3.303 19.959 3.126 20.126 L 3.126 20.126 L 3.126 20.126 L 3.126 20.126 L 3.126 20.126 Z  M 20.126 3.126 C 19.959 3.303 19.857 3.535 19.857 3.786 L 19.857 11.214 C 19.857 11.465 19.959 11.697 20.126 11.874 C 20.303 12.041 20.535 12.143 20.786 12.143 L 28.214 12.143 C 28.465 12.143 28.697 12.041 28.874 11.874 C 29.041 11.697 29.143 11.465 29.143 11.214 L 29.143 3.786 C 29.143 3.535 29.041 3.303 28.874 3.126 C 28.697 2.959 28.465 2.857 28.214 2.857 L 20.786 2.857 C 20.535 2.857 20.303 2.959 20.126 3.126 L 20.126 3.126 L 20.126 3.126 Z  M 20.214 17 L 28.786 17 C 29.643 17 30.457 17.343 31.057 17.943 C 31.657 18.543 32 19.357 32 20.214 L 32 28.786 C 32 29.643 31.657 30.457 31.057 31.057 C 30.457 31.657 29.643 32 28.786 32 L 20.214 32 C 19.357 32 18.543 31.657 17.943 31.057 C 17.343 30.457 17 29.643 17 28.786 L 17 20.214 C 17 19.357 17.343 18.543 17.943 17.943 C 18.543 17.343 19.357 17 20.214 17 L 20.214 17 Z  M 20.214 0 L 28.786 0 C 29.643 0 30.457 0.343 31.057 0.943 C 31.657 1.543 32 2.357 32 3.214 L 32 11.786 C 32 12.643 31.657 13.457 31.057 14.057 C 30.457 14.657 29.643 15 28.786 15 L 20.214 15 C 19.357 15 18.543 14.657 17.943 14.057 C 17.343 13.457 17 12.643 17 11.786 L 17 3.214 C 17 2.357 17.343 1.543 17.943 0.943 C 18.543 0.343 19.357 0 20.214 0 L 20.214 0 L 20.214 0 L 20.214 0 Z  M 3.214 17 L 11.786 17 C 12.643 17 13.457 17.343 14.057 17.943 C 14.657 18.543 15 19.357 15 20.214 L 15 28.786 C 15 29.643 14.657 30.457 14.057 31.057 C 13.457 31.657 12.643 32 11.786 32 L 3.214 32 C 2.357 32 1.543 31.657 0.943 31.057 C 0.343 30.457 0 29.643 0 28.786 L 0 20.214 C 0 19.357 0.343 18.543 0.943 17.943 C 1.543 17.343 2.357 17 3.214 17 L 3.214 17 L 3.214 17 L 3.214 17 L 3.214 17 L 3.214 17 Z  M 3.214 0 L 11.786 0 C 12.643 0 13.457 0.343 14.057 0.943 C 14.657 1.543 15 2.357 15 3.214 L 15 11.786 C 15 12.643 14.657 13.457 14.057 14.057 C 13.457 14.657 12.643 15 11.786 15 L 3.214 15 C 2.357 15 1.543 14.657 0.943 14.057 C 0.343 13.457 0 12.643 0 11.786 L 0 3.214 C 0 2.357 0.343 1.543 0.943 0.943 C 1.543 0.343 2.357 0 3.214 0 L 3.214 0 L 3.214 0 L 3.214 0 L 3.214 0 L 3.214 0 L 3.214 0 Z  M 20.126 20.126 C 19.959 20.303 19.857 20.535 19.857 20.786 L 19.857 28.214 C 19.857 28.465 19.959 28.697 20.126 28.874 C 20.303 29.041 20.535 29.143 20.786 29.143 L 28.214 29.143 C 28.465 29.143 28.697 29.041 28.874 28.874 C 29.041 28.697 29.143 28.465 29.143 28.214 L 29.143 20.786 C 29.143 20.535 29.041 20.303 28.874 20.126 C 28.697 19.959 28.465 19.857 28.214 19.857 L 20.786 19.857 C 20.535 19.857 20.303 19.959 20.126 20.126 Z "/></svg>