<?xml version="1.0" encoding="UTF-8" standalone="no"?><!-- Generator: Gravit.io --><svg xmlns="http://www.w3.org/2000/svg" xmlns:xlink="http://www.w3.org/1999/xlink" style="isolation:isolate" viewBox="0 0 32 32" width="32pt" height="32pt"><defs></defs><path d=" M 9 16 C 9 14.14 9.74 12.36 11.05 11.05 C 12.36 9.74 14.14 9 16 9 C 17.86 9 19.64 9.74 20.95 11.05 C 22.26 12.36 23 14.14 23 16 C 23 17.86 22.26 19.64 20.95 20.95 C 19.64 22.26 17.86 23 16 23 C 14.14 23 12.36 22.26 11.05 20.95 C 9.74 19.64 9 17.86 9 16 L 9 16 Z  M 6.1 25.9 C 8.73 28.52 12.29 30 16 30 L 16 30 C 19.71 30 23.27 28.52 25.9 25.9 C 28.52 23.27 30 19.71 30 16 L 30 16 C 30 12.29 28.52 8.73 25.9 6.1 C 23.27 3.48 19.71 2 16 2 C 12.29 2 8.73 3.48 6.1 6.1 C 3.48 8.73 2 12.29 2 16 C 2 19.71 3.48 23.27 6.1 25.9 L 6.1 25.9 L 6.1 25.9 Z  M 0 16 C 0 11.76 1.69 7.69 4.69 4.69 C 7.69 1.69 11.76 0 16 0 C 20.24 0 24.31 1.69 27.31 4.69 C 30.31 7.69 32 11.76 32 16 L 32 16 C 32 20.24 30.31 24.31 27.31 27.31 C 24.31 30.31 20.24 32 16 32 L 16 32 C 11.76 32 7.69 30.31 4.69 27.31 C 1.69 24.31 0 20.24 0 16 L 0 16 L 0 16 Z  M 12.46 19.54 C 13.4 20.47 14.67 21 16 21 C 17.33 21 18.6 20.47 19.54 19.54 C 20.47 18.6 21 17.33 21 16 C 21 14.67 20.47 13.4 19.54 12.46 C 18.6 11.53 17.33 11 16 11 C 14.67 11 13.4 11.53 12.46 12.46 C 11.53 13.4 11 14.67 11 16 C 11 17.33 11.53 18.6 12.46 19.54 Z "/></svg>