<?xml version="1.0" encoding="UTF-8" standalone="no"?><!-- Generator: Gravit.io --><svg xmlns="http://www.w3.org/2000/svg" xmlns:xlink="http://www.w3.org/1999/xlink" style="isolation:isolate" viewBox="0 0 32 32" width="32pt" height="32pt"><defs></defs><path d=" M 9.5 8.5 C 9.5 6.78 10.19 5.12 11.4 3.9 C 12.62 2.69 14.28 2 16 2 C 17.72 2 19.38 2.69 20.6 3.9 C 21.81 5.12 22.5 6.78 22.5 8.5 C 22.5 10.22 21.81 11.88 20.6 13.1 C 19.38 14.31 17.72 15 16 15 C 14.28 15 12.62 14.31 11.4 13.1 C 10.19 11.88 9.5 10.22 9.5 8.5 L 9.5 8.5 L 9.5 8.5 L 9.5 8.5 Z  M 30 29.96 C 29.92 30 29.83 30.02 29.74 30.02 C 27.74 30.03 25.75 30.04 23.75 30.04 C 21.2 30.03 18.65 30.02 16.1 30 C 13.61 29.98 11.12 29.97 8.63 29.97 C 6.51 29.96 4.39 29.97 2.27 29.99 L 2.25 29.99 C 2.24 29.99 2.22 29.99 2.21 29.99 C 2.14 29.99 2.07 29.98 2.01 29.95 C 2.02 29.87 2.04 29.79 2.09 29.72 C 3.06 27.9 4.16 26.16 5.38 24.5 C 6.23 23.35 7.19 22.28 8.26 21.33 C 8.9 20.75 9.6 20.22 10.33 19.75 C 10.94 19.36 11.59 19.02 12.26 18.75 C 12.88 18.5 13.51 18.31 14.16 18.19 C 14.8 18.06 15.45 18 16.1 18 C 16.73 18 17.36 18.06 17.99 18.18 C 18.62 18.3 19.23 18.48 19.83 18.72 C 20.48 18.97 21.11 19.29 21.7 19.66 C 22.4 20.1 23.06 20.6 23.68 21.15 C 24.76 22.1 25.74 23.17 26.59 24.34 C 27.84 26.04 28.95 27.83 29.92 29.69 C 29.96 29.78 29.99 29.87 30 29.96 L 30 29.96 Z  M 19.106 16.383 C 20.191 15.982 21.18 15.34 22.01 14.51 C 23.6 12.92 24.5 10.75 24.5 8.5 C 24.5 6.25 23.6 4.08 22.01 2.49 C 20.42 0.9 18.25 0 16 0 C 13.75 0 11.58 0.9 9.99 2.49 C 8.4 4.08 7.5 6.25 7.5 8.5 L 7.5 8.5 C 7.5 10.75 8.4 12.92 9.99 14.51 C 10.841 15.361 11.858 16.014 12.973 16.416 C 12.479 16.544 11.993 16.702 11.52 16.89 C 10.72 17.21 9.96 17.6 9.25 18.07 C 8.42 18.59 7.65 19.19 6.92 19.84 C 5.75 20.89 4.7 22.05 3.77 23.31 C 2.5 25.04 1.35 26.85 0.34 28.75 C 0.13 29.12 0.01 29.53 0 29.96 C -0.01 30.55 0.25 31.12 0.71 31.49 C 1.16 31.83 1.72 32.01 2.28 31.99 C 2.29 31.99 2.3 31.98 2.31 31.98 L 2.26 31.99 L 2.28 31.99 C 2.28 31.99 2.28 31.99 2.28 31.99 C 2.28 31.99 2.28 31.99 2.28 31.99 C 4.4 31.97 6.51 31.96 8.63 31.97 C 11.12 31.97 13.6 31.98 16.09 32 C 18.64 32.02 21.2 32.03 23.75 32.04 C 25.73 32.04 27.72 32.03 29.7 32.02 C 30.27 32.03 30.84 31.85 31.29 31.5 C 31.75 31.11 32.01 30.54 32 29.94 C 31.99 29.53 31.88 29.11 31.68 28.75 C 30.66 26.8 29.5 24.93 28.21 23.16 C 27.27 21.88 26.2 20.7 25 19.65 C 24.3 19.03 23.56 18.47 22.77 17.97 C 22.07 17.53 21.33 17.16 20.57 16.86 C 20.089 16.666 19.603 16.508 19.106 16.383 L 19.106 16.383 L 19.106 16.383 Z  M 19.29 21.29 C 19.48 21.11 19.74 21 20 21 C 20.27 21 20.52 21.11 20.71 21.29 C 20.89 21.48 21 21.74 21 22 C 21 22.27 20.89 22.52 20.71 22.71 C 19.46 23.95 17.76 24.66 16 24.66 C 14.24 24.66 12.54 23.95 11.29 22.71 C 11.11 22.52 11 22.27 11 22 C 11 21.74 11.11 21.48 11.29 21.29 C 11.48 21.11 11.73 21 12 21 C 12.26 21 12.52 21.11 12.71 21.29 C 13.58 22.17 14.77 22.66 16 22.66 C 17.23 22.66 18.42 22.17 19.29 21.29 Z "/></svg>